<svg xmlns="http://www.w3.org/2000/svg" version="1.1" viewBox="69.69 -0.31 560.61 560.61">
 <path d="m577.5 422.45v-284.9c16.059-4.0703 30.152-13.703 39.777-27.188s14.156-29.941 12.789-46.453c-1.3711-16.508-8.5508-32-20.262-43.715-11.715-11.711-27.207-18.891-43.715-20.262-16.512-1.3672-32.969 3.1641-46.453 12.789s-23.117 23.719-27.188 39.777h-284.9c-4.0703-16.059-13.703-30.152-27.188-39.777s-29.941-14.156-46.453-12.789c-16.508 1.3711-32 8.5508-43.715 20.262-11.711 11.715-18.891 27.207-20.262 43.715-1.3672 16.512 3.1641 32.969 12.789 46.453s23.719 23.117 39.777 27.188v284.9c-16.059 4.0703-30.152 13.703-39.777 27.188s-14.156 29.941-12.789 46.453c1.3711 16.508 8.5508 32 20.262 43.715 11.715 11.711 27.207 18.891 43.715 20.262 16.512 1.3672 32.969-3.1641 46.453-12.789s23.117-23.719 27.188-39.777h284.9c4.0703 16.059 13.703 30.152 27.188 39.777s29.941 14.156 46.453 12.789c16.508-1.3711 32-8.5508 43.715-20.262 11.711-11.715 18.891-27.207 20.262-43.715 1.3672-16.512-3.1641-32.969-12.789-46.453s-23.719-23.117-39.777-27.188zm-17.5-387.45c9.2812 0 18.184 3.6875 24.75 10.25 6.5625 6.5664 10.25 15.469 10.25 24.75s-3.6875 18.184-10.25 24.75c-6.5664 6.5625-15.469 10.25-24.75 10.25s-18.184-3.6875-24.75-10.25c-6.5625-6.5664-10.25-15.469-10.25-24.75s3.6875-18.184 10.25-24.75c6.5664-6.5625 15.469-10.25 24.75-10.25zm-455 35c0-9.2812 3.6875-18.184 10.25-24.75 6.5664-6.5625 15.469-10.25 24.75-10.25s18.184 3.6875 24.75 10.25c6.5625 6.5664 10.25 15.469 10.25 24.75s-3.6875 18.184-10.25 24.75c-6.5664 6.5625-15.469 10.25-24.75 10.25s-18.184-3.6875-24.75-10.25c-6.5625-6.5664-10.25-15.469-10.25-24.75zm35 455c-9.2812 0-18.184-3.6875-24.75-10.25-6.5625-6.5664-10.25-15.469-10.25-24.75s3.6875-18.184 10.25-24.75c6.5664-6.5625 15.469-10.25 24.75-10.25s18.184 3.6875 24.75 10.25c6.5625 6.5664 10.25 15.469 10.25 24.75s-3.6875 18.184-10.25 24.75c-6.5664 6.5625-15.469 10.25-24.75 10.25zm352.45-52.5h-284.9c-3.1445-12.039-9.4375-23.02-18.234-31.816s-19.777-15.09-31.816-18.234v-284.9c12.039-3.1445 23.02-9.4375 31.816-18.234s15.09-19.777 18.234-31.816h284.9c3.1445 12.039 9.4375 23.02 18.234 31.816s19.777 15.09 31.816 18.234v284.9c-12.039 3.1445-23.02 9.4375-31.816 18.234s-15.09 19.777-18.234 31.816zm67.551 52.5c-9.2812 0-18.184-3.6875-24.75-10.25-6.5625-6.5664-10.25-15.469-10.25-24.75s3.6875-18.184 10.25-24.75c6.5664-6.5625 15.469-10.25 24.75-10.25s18.184 3.6875 24.75 10.25c6.5625 6.5664 10.25 15.469 10.25 24.75s-3.6875 18.184-10.25 24.75c-6.5664 6.5625-15.469 10.25-24.75 10.25z" fill-rule="evenodd"/>
</svg>