<svg xmlns="http://www.w3.org/2000/svg" version="1.1" viewBox="95.73 72.33 508.53 415.34">
 <path d="m134.14 72.328c-21.262 0-38.414 17.148-38.414 38.414v338.48c0 21.281 17.148 38.449 38.414 38.449h431.67c21.281 0 38.449-17.168 38.449-38.449v-338.48c0-21.262-17.168-38.414-38.449-38.414zm0 17.309h431.67c11.566 0 21.105 9.5547 21.105 21.105v66.516h-473.85v-66.516c0-11.551 9.5039-21.105 21.07-21.105zm263.99 35.156c-2.2227 0-4.5312 0.94531-6.1094 2.5039-1.5938 1.6094-2.5391 3.9023-2.5391 6.1406s0.94531 4.5312 2.5039 6.1094c1.6094 1.6094 3.9531 2.5742 6.1406 2.5742s4.4961-0.96094 6.0742-2.5391c1.6094-1.6289 2.5742-3.9727 2.5742-6.1406 0-2.2031-0.92578-4.4805-2.5039-6.0742-1.6289-1.6094-3.9727-2.5742-6.1406-2.5742zm60.828 0c-2.2227 0-4.4805 0.92578-6.0742 2.5039-1.6094 1.6289-2.5742 3.9531-2.5742 6.1406s0.96094 4.5156 2.5391 6.1094c1.6289 1.6289 3.9219 2.5742 6.1094 2.5742s4.5664-0.99609 6.1406-2.5742c1.5938-1.6094 2.5391-3.9219 2.5391-6.1094 0-2.2383-0.94531-4.4961-2.5039-6.0742-1.5938-1.5938-4.0078-2.5742-6.1758-2.5742zm60.867 0c-2.2383 0-4.5664 0.96094-6.1406 2.5391-1.6094 1.6094-2.5391 3.8867-2.5391 6.1094s0.96094 4.5508 2.5391 6.1094c1.6289 1.6094 3.9727 2.5742 6.1406 2.5742 2.1875 0 4.5156-0.98047 6.1094-2.5742s2.5391-3.9219 2.5391-6.1094c0-2.2383-0.94531-4.4961-2.5039-6.0742-1.6289-1.6094-3.9727-2.5742-6.1406-2.5742zm-345.31 3.3594c-2.9922 0-5.2656 2.293-5.2656 5.3008 0 3.0117 2.2734 5.2656 5.2656 5.2656h127.87c3.0117 0 5.2656-2.2734 5.2656-5.2656s-2.293-5.3008-5.2656-5.3008zm-61.445 66.43h473.85v254.62c0 11.566-9.5195 21.141-21.105 21.141h-431.67c-11.586 0-21.07-9.5898-21.07-21.141z"/>
</svg>